<svg xmlns="http://www.w3.org/2000/svg" viewBox="0 0 24 30"><title>ic-patent</title><g id="Ebene_2" data-name="Ebene 2"><g id="ic-patent"><path id="ic-patent-2" data-name="ic-patent" d="M9.5,24h-6a.5.5,0,0,1,0-1h6a.5.5,0,0,1,0,1Zm0-3h-6a.5.5,0,0,1,0-1h6a.5.5,0,0,1,0,1Zm3-3h-9a.5.5,0,0,1,0-1h9a.5.5,0,0,1,0,1Zm8-3H3.5a.5.5,0,1,1,0-1h17a.5.5,0,0,1,0,1Zm0-3H3.5a.5.5,0,0,1,0-1h17a.5.5,0,0,1,0,1Zm0-3H3.5a.5.5,0,0,1,0-1h17a.5.5,0,0,1,0,1ZM20.5,0h-17A3.55,3.55,0,0,0,0,3.61V26.39A3.55,3.55,0,0,0,3.48,30h17A3.55,3.55,0,0,0,24,26.39V3.5A3.5,3.5,0,0,0,20.5,0ZM23,26.39A2.55,2.55,0,0,1,20.52,29h-17A2.55,2.55,0,0,1,1,26.39V3.61A2.55,2.55,0,0,1,3.48,1h.11l.09,5.71L5.53,4.93,7.44,6.65,7.35,1H20.5A2.5,2.5,0,0,1,23,3.5ZM17.57,27a.5.5,0,0,1-.27-.08l-.8-.51-.8.51a.51.51,0,0,1-.4.06.5.5,0,0,1-.31-.25l-.44-.85-1,0a.47.47,0,0,1-.38-.15.5.5,0,0,1-.15-.38l0-1L12.27,24a.5.5,0,0,1-.19-.71l.51-.8-.51-.8a.5.5,0,0,1,.19-.71l.85-.44,0-1a.5.5,0,0,1,.15-.38.48.48,0,0,1,.38-.15l1,0,.44-.85A.5.5,0,0,1,15.3,18a.51.51,0,0,1,.4.06l.8.51.8-.51a.51.51,0,0,1,.4-.06.5.5,0,0,1,.31.25l.44.85,1,0a.48.48,0,0,1,.38.15.5.5,0,0,1,.15.38l0,1,.85.44a.5.5,0,0,1,.19.71l-.51.8.51.8a.5.5,0,0,1-.19.71l-.85.44,0,1a.5.5,0,0,1-.15.38.46.46,0,0,1-.38.15l-1,0-.44.85a.5.5,0,0,1-.31.25ZM16.5,25.31a.5.5,0,0,1,.27.08l.61.39.33-.64a.47.47,0,0,1,.47-.27l.72,0,0-.72a.5.5,0,0,1,.27-.47l.64-.33-.39-.61a.5.5,0,0,1,0-.54l.39-.61-.64-.33a.5.5,0,0,1-.27-.47l0-.72-.72,0a.47.47,0,0,1-.47-.27l-.33-.64-.61.39a.5.5,0,0,1-.54,0l-.61-.39-.33.64a.47.47,0,0,1-.47.27l-.72,0,0,.72a.5.5,0,0,1-.27.47l-.64.33.39.61a.5.5,0,0,1,0,.54l-.39.61.64.33a.5.5,0,0,1,.27.47l0,.72.72,0a.47.47,0,0,1,.47.27l.33.64.61-.39A.5.5,0,0,1,16.5,25.31Z"/></g></g></svg>