<svg xmlns="http://www.w3.org/2000/svg" viewBox="0 0 29.94 25.46"><title>ic-training</title><g id="Ebene_2" data-name="Ebene 2"><g id="ic-training"><path id="ic-training-2" data-name="ic-training" d="M10.5,25.46A.5.5,0,0,1,10,25V20.88A3.55,3.55,0,0,0,6.75,17.1H4.25A3.55,3.55,0,0,0,1,20.88V25a.5.5,0,0,1-1,0V20.88A4.55,4.55,0,0,1,4.25,16.1h2.5A4.55,4.55,0,0,1,11,20.88V25A.5.5,0,0,1,10.5,25.46ZM27,21H12.87a.5.5,0,0,1,0-1H27a1.94,1.94,0,0,0,1.94-1.94V2.94A1.94,1.94,0,0,0,27,1H7.88A1.94,1.94,0,0,0,5.94,2.94V7.08a.5.5,0,0,1-1,0V2.94A2.94,2.94,0,0,1,7.88,0H27a2.94,2.94,0,0,1,2.94,2.94V18.06A2.94,2.94,0,0,1,27,21ZM16.89,17.77a1.5,1.5,0,0,1-1.5-1.5s0,0,0-.06l-2.39-1a1.5,1.5,0,1,1,.39-1s0,.05,0,.08l2.37,1a1.55,1.55,0,0,1,1.65-.42l2.34-3.16a1.5,1.5,0,1,1,2.63-.25l2.22,2.24a1.5,1.5,0,1,1-.73.68L21.7,12.19a1.54,1.54,0,0,1-1.15.11l-2.37,3.2a1.5,1.5,0,0,1-1.29,2.27Zm-.47-1.67a.49.49,0,0,0,0,.17.5.5,0,1,0,0-.19Zm8.42-1.39a.5.5,0,1,0,.85.36.52.52,0,0,0-.82-.38Zm-13-1a.5.5,0,1,0,.5.5A.5.5,0,0,0,11.89,13.67Zm9.1-3.3a.5.5,0,1,0,.36.85l0,0a.5.5,0,0,0-.39-.81ZM5.5,15a3.36,3.36,0,1,1,3.36-3.36A3.36,3.36,0,0,1,5.5,15Zm0-5.71a2.36,2.36,0,1,0,2.36,2.36A2.36,2.36,0,0,0,5.5,9.29ZM25.94,8H9.54a.5.5,0,0,1,0-1h16.4a.5.5,0,1,1,0,1Zm0-3H9.54a.5.5,0,0,1,0-1h16.4a.5.5,0,0,1,0,1Z"/></g></g></svg>