<svg xmlns="http://www.w3.org/2000/svg" viewBox="0 0 27 27.29"><title>ic-doc_rooms</title><g id="Ebene_2" data-name="Ebene 2"><g id="ic-doc_rooms"><path id="ic-doc_rooms-2" data-name="ic-doc_rooms" d="M27,27.29H0V16.54H9.07l.11.34a4.58,4.58,0,0,0,8.63,0l.11-.34H27Zm-26-1H26V17.54H18.64a5.59,5.59,0,0,1-10.28,0H1Zm14.25-7.85H11.75a.5.5,0,0,1,0-1h3.49a.5.5,0,0,1,0,1Zm8-2.87a.5.5,0,0,1-.5-.5V5.39L18.57,1H10A1.49,1.49,0,0,0,8.63,2.17h8.2l4.75,5V15a.5.5,0,1,1-1,0V7.55L16.4,3.17H7.88A1.49,1.49,0,0,0,6.46,4.33h8.2l4.75,5V15a.5.5,0,0,1-1,0V9.95H13.7V5.33h-8A1.51,1.51,0,0,0,4.25,6.88V15a.5.5,0,0,1-1,0V6.88A2.52,2.52,0,0,1,5.44,4.35,2.51,2.51,0,0,1,7.61,2.18,2.5,2.5,0,0,1,10,0h9l4.75,5V15.07A.5.5,0,0,1,23.25,15.57ZM14.7,8.95h3l-3-3.13Zm1.58,6.28H6.39a.5.5,0,0,1,0-1h9.89a.5.5,0,0,1,0,1Zm0-3.21H6.39a.5.5,0,0,1,0-1h9.89a.5.5,0,0,1,0,1ZM11.66,8.8H6.39a.5.5,0,0,1,0-1h5.28a.5.5,0,1,1,0,1Z"/></g></g></svg>