<svg xmlns="http://www.w3.org/2000/svg" viewBox="0 0 27 29"><title>ic-FEBER</title><g id="Ebene_2" data-name="Ebene 2"><g id="ic-FEBER"><path id="ic-FEBER-2" data-name="ic-FEBER" d="M4,18.85V14.09H7v.84H4.95v1.4H6.64v.84H4.95v1.68Zm3.72,0V14.09h3.08v.84H8.66V16h1.69v.83H8.66V18h2.11v.84Zm3.88-4.76h1.87a1.75,1.75,0,0,1,1.11.3,1.16,1.16,0,0,1,.37,1,1.41,1.41,0,0,1-.12.63,1.09,1.09,0,0,1-.41.42,1,1,0,0,1,.47.39,1.36,1.36,0,0,1,.15.7,1.26,1.26,0,0,1-.41,1,1.73,1.73,0,0,1-1.14.34h-1.9Zm1.82.83h-.85V16h.86c.36,0,.55-.19.55-.57A.49.49,0,0,0,13.39,14.91Zm0,1.95h-.88V18h.88a.71.71,0,0,0,.46-.13.58.58,0,0,0,.15-.46Q14,16.86,13.42,16.86Zm2.41,2V14.09h3.08v.84H16.8V16H18.5v.83H16.8V18h2.11v.84Zm4.84-1.6v1.6h-1V14.09h1.85q1.68,0,1.68,1.57a1.5,1.5,0,0,1-.7,1.37l.68,1.82H22.16l-.55-1.6Zm1.41-1a.86.86,0,0,0,.17-.55.8.8,0,0,0-.18-.55.65.65,0,0,0-.51-.2h-.88v1.51h.9A.61.61,0,0,0,22.09,16.22ZM24,29H3a3,3,0,0,1-3-3V23.65a3,3,0,0,1,0-.31.5.5,0,0,1,0-.16L1.3,3.31A3.22,3.22,0,0,1,4.4,0H22.6a3.23,3.23,0,0,1,3.1,3.34L27,23.18a.5.5,0,0,1,0,.16c0,.1,0,.21,0,.31V26A3,3,0,0,1,24,29ZM3,21.62a2,2,0,0,0-2,2V26a2,2,0,0,0,2,2H24a2,2,0,0,0,2-2V23.65a2,2,0,0,0-2-2Zm0-1H24a3,3,0,0,1,1.9.67L24.7,3.37A2.24,2.24,0,0,0,22.6,1H4.4A2.23,2.23,0,0,0,2.3,3.34l-1.17,18A3,3,0,0,1,3,20.62Zm17.48,6.6A2.41,2.41,0,1,1,23,24.81,2.43,2.43,0,0,1,20.51,27.22Zm0-3.82A1.41,1.41,0,1,0,22,24.81,1.43,1.43,0,0,0,20.51,23.4Z"/></g></g></svg>