<svg xmlns="http://www.w3.org/2000/svg" viewBox="0 0 30 30"><defs><style>.cls-1{fill:#7c8b9c;}</style></defs><title>ic-meeting</title><g id="Ebene_2" data-name="Ebene 2"><g id="ic-profile"><g id="ic-profile-2" data-name="ic-profile"><path id="outer" class="cls-1" d="M15,30A15,15,0,1,1,30,15,15,15,0,0,1,15,30ZM15,1A14,14,0,1,0,29,15,14,14,0,0,0,15,1Z"/><path id="inner" d="M22.5,27.81h-1v-5.7c0-3-2.13-5.5-4.75-5.5h-3.5c-2.62,0-4.75,2.47-4.75,5.5v5.7h-1v-5.7c0-3.58,2.58-6.5,5.75-6.5h3.5c3.17,0,5.75,2.92,5.75,6.5ZM15,13.68a4.5,4.5,0,1,1,4.5-4.5A4.5,4.5,0,0,1,15,13.68Zm0-8a3.5,3.5,0,1,0,3.5,3.5A3.5,3.5,0,0,0,15,5.68Z"/></g></g></g></svg>