<svg xmlns="http://www.w3.org/2000/svg" viewBox="0 0 27 29"><title>ic-SIENO</title><g id="Ebene_2" data-name="Ebene 2"><g id="ic-SIENO"><path id="ic-SIENO-2" data-name="ic-SIENO" d="M24,29H3a3,3,0,0,1-3-3V23.65a3,3,0,0,1,0-.31.5.5,0,0,1,0-.16L1.3,3.31A3.22,3.22,0,0,1,4.4,0H22.6a3.23,3.23,0,0,1,3.1,3.34L27,23.18a.5.5,0,0,1,0,.16c0,.1,0,.21,0,.31V26A3,3,0,0,1,24,29ZM3,21.62a2,2,0,0,0-2,2V26a2,2,0,0,0,2,2H24a2,2,0,0,0,2-2V23.65a2,2,0,0,0-2-2Zm0-1H24a3,3,0,0,1,1.9.67L24.7,3.37A2.24,2.24,0,0,0,22.6,1H4.4A2.23,2.23,0,0,0,2.3,3.34l-1.17,18A3,3,0,0,1,3,20.62Zm17.48,6.6A2.41,2.41,0,1,1,23,24.81,2.43,2.43,0,0,1,20.51,27.22Zm0-3.82A1.41,1.41,0,1,0,22,24.81,1.43,1.43,0,0,0,20.51,23.4ZM5.93,14.84q-.76,0-.76.5a.38.38,0,0,0,.19.34,4.82,4.82,0,0,0,.89.34,2.45,2.45,0,0,1,1,.51,1.2,1.2,0,0,1,.28.87A1.4,1.4,0,0,1,7,18.55a1.79,1.79,0,0,1-1.19.38,6.67,6.67,0,0,1-1.34-.17l-.25,0,.1-.75a11.65,11.65,0,0,0,1.44.13q.74,0,.74-.62a.41.41,0,0,0-.17-.35,2.45,2.45,0,0,0-.68-.27,2.77,2.77,0,0,1-1.14-.55,1.17,1.17,0,0,1-.33-.89,1.29,1.29,0,0,1,.43-1.06A1.84,1.84,0,0,1,5.83,14a7.92,7.92,0,0,1,1.32.14l.25,0L7.32,15Q6.34,14.84,5.93,14.84Zm2.35,4V14.09h1v4.76Zm2,0V14.09h3.08v.84H11.24V16h1.69v.83H11.24V18h2.11v.84Zm3.88,0V14.09h1.63L16.93,18H17V14.09h1v4.76H16.38l-1.19-3.92h-.07v3.92Zm8.15-.51a1.8,1.8,0,0,1-1.53.59,1.79,1.79,0,0,1-1.53-.59,3.09,3.09,0,0,1-.45-1.85,3.19,3.19,0,0,1,.45-1.87A1.76,1.76,0,0,1,20.77,14a1.77,1.77,0,0,1,1.53.61,3.2,3.2,0,0,1,.44,1.87A3.1,3.1,0,0,1,22.3,18.34ZM20,17.72a1,1,0,0,0,1.55,0,2.68,2.68,0,0,0,.21-1.23,2.79,2.79,0,0,0-.21-1.26,1,1,0,0,0-1.54,0,2.81,2.81,0,0,0-.21,1.26A2.68,2.68,0,0,0,20,17.72Z"/></g></g></svg>