<svg xmlns="http://www.w3.org/2000/svg" viewBox="0 0 27 29"><title>ic-SOCOS</title><g id="Ebene_2" data-name="Ebene 2"><g id="ic-SOCOS"><g id="ic-SOCOS-2" data-name="ic-SOCOS"><path id="hard_drive" data-name="hard drive" d="M24,29H3a3,3,0,0,1-3-3V23.65a3,3,0,0,1,0-.31.5.5,0,0,1,0-.16L1.3,3.31A3.22,3.22,0,0,1,4.4,0H22.6a3.23,3.23,0,0,1,3.1,3.34L27,23.18a.5.5,0,0,1,0,.16c0,.1,0,.21,0,.31V26A3,3,0,0,1,24,29ZM3,21.62a2,2,0,0,0-2,2V26a2,2,0,0,0,2,2H24a2,2,0,0,0,2-2V23.65a2,2,0,0,0-2-2Zm0-1H24a3,3,0,0,1,1.9.67L24.7,3.37A2.24,2.24,0,0,0,22.6,1H4.4A2.23,2.23,0,0,0,2.3,3.34l-1.17,18A3,3,0,0,1,3,20.62Zm17.48,6.6A2.41,2.41,0,1,1,23,24.81,2.43,2.43,0,0,1,20.51,27.22Zm0-3.82A1.41,1.41,0,1,0,22,24.81,1.43,1.43,0,0,0,20.51,23.4Z"/><path id="SOCOS" d="M5.23,14.84q-.76,0-.76.5a.38.38,0,0,0,.19.34,4.82,4.82,0,0,0,.89.34,2.45,2.45,0,0,1,1,.51,1.2,1.2,0,0,1,.28.87,1.4,1.4,0,0,1-.45,1.13,1.79,1.79,0,0,1-1.19.38,6.67,6.67,0,0,1-1.34-.17l-.25,0,.1-.75a11.65,11.65,0,0,0,1.44.13q.74,0,.74-.62a.41.41,0,0,0-.17-.35A2.45,2.45,0,0,0,5,16.85a2.77,2.77,0,0,1-1.14-.55,1.17,1.17,0,0,1-.33-.89,1.29,1.29,0,0,1,.43-1.06A1.84,1.84,0,0,1,5.13,14a7.92,7.92,0,0,1,1.32.14l.25,0L6.62,15Q5.64,14.84,5.23,14.84Zm5.64,3.5a1.8,1.8,0,0,1-1.53.59,1.79,1.79,0,0,1-1.53-.59,3.1,3.1,0,0,1-.44-1.85,3.2,3.2,0,0,1,.44-1.87A1.77,1.77,0,0,1,9.34,14a1.77,1.77,0,0,1,1.53.61,3.19,3.19,0,0,1,.45,1.87A3.09,3.09,0,0,1,10.87,18.34Zm-2.3-.62a.81.81,0,0,0,.77.37.81.81,0,0,0,.77-.37,2.67,2.67,0,0,0,.21-1.23,2.79,2.79,0,0,0-.21-1.26.79.79,0,0,0-.77-.39.79.79,0,0,0-.77.39,2.8,2.8,0,0,0-.21,1.26A2.68,2.68,0,0,0,8.57,17.72Zm6.59,1a6.37,6.37,0,0,1-1.34.16,2.56,2.56,0,0,1-1-.15,1.18,1.18,0,0,1-.56-.47,2.07,2.07,0,0,1-.28-.76A6.37,6.37,0,0,1,12,16.47a3.46,3.46,0,0,1,.39-1.92A1.65,1.65,0,0,1,13.77,14a6.09,6.09,0,0,1,1.39.19l0,.77A7.91,7.91,0,0,0,14,14.86a1.3,1.3,0,0,0-.65.12.76.76,0,0,0-.29.47,5,5,0,0,0-.09,1.17,2.39,2.39,0,0,0,.19,1.14.83.83,0,0,0,.77.32,8.25,8.25,0,0,0,1.23-.1Zm4-.43a1.8,1.8,0,0,1-1.53.59,1.79,1.79,0,0,1-1.53-.59,3.09,3.09,0,0,1-.45-1.85,3.19,3.19,0,0,1,.45-1.87A1.76,1.76,0,0,1,17.66,14a1.77,1.77,0,0,1,1.53.61,3.2,3.2,0,0,1,.44,1.87A3.1,3.1,0,0,1,19.19,18.34Zm-2.3-.62a.81.81,0,0,0,.77.37.81.81,0,0,0,.77-.37,2.68,2.68,0,0,0,.21-1.23,2.79,2.79,0,0,0-.21-1.26,1,1,0,0,0-1.54,0,2.81,2.81,0,0,0-.21,1.26A2.68,2.68,0,0,0,16.89,17.72Zm5-2.88q-.76,0-.76.5a.38.38,0,0,0,.19.34,4.81,4.81,0,0,0,.89.34,2.45,2.45,0,0,1,1,.51,1.19,1.19,0,0,1,.28.87A1.4,1.4,0,0,1,23,18.55a1.78,1.78,0,0,1-1.19.38,6.67,6.67,0,0,1-1.34-.17l-.25,0,.1-.75a11.65,11.65,0,0,0,1.43.13q.74,0,.74-.62a.41.41,0,0,0-.17-.35,2.48,2.48,0,0,0-.68-.27,2.76,2.76,0,0,1-1.14-.55,1.17,1.17,0,0,1-.33-.89,1.28,1.28,0,0,1,.43-1.06A1.84,1.84,0,0,1,21.83,14a7.92,7.92,0,0,1,1.32.14l.25,0-.08.76Q22.33,14.84,21.92,14.84Z"/></g></g></g></svg>